<svg width="50" height="37" viewBox="0 0 50 37" fill="none" xmlns="http://www.w3.org/2000/svg">
<g clip-path="url(#clip0_51_44)">
<path d="M6 33.5H2C1.44772 33.5 1 33.0523 1 32.5V24C1 23.4477 1.44772 23 2 23H6M6 33.5V23M6 33.5L10.8212 35.4285C10.9393 35.4757 11.0654 35.5 11.1926 35.5H19.8333C20.237 35.5 20.6011 35.2573 20.7564 34.8846L22.3053 31.1672C22.7542 30.0898 22.8121 28.8893 22.4688 27.7737L21.2172 23.7059C21.0881 23.2863 20.7004 23 20.2614 23H14.5H15.882C16.6253 23 17.1088 22.2177 16.7764 21.5528L16.2764 20.5528C16.107 20.214 15.7607 20 15.382 20H11.277C11.0957 20 10.9179 20.0493 10.7625 20.1425L6 23" stroke="black" stroke-width="2"/>
<path d="M43.5 33.5H47.5C48.0523 33.5 48.5 33.0523 48.5 32.5V24C48.5 23.4477 48.0523 23 47.5 23H43.5M43.5 33.5V23M43.5 33.5L38.6788 35.4285C38.5607 35.4757 38.4346 35.5 38.3074 35.5H29.6667C29.263 35.5 28.8989 35.2573 28.7436 34.8846L27.1947 31.1672C26.7458 30.0898 26.6879 28.8893 27.0312 27.7737L28.2828 23.7059C28.4119 23.2863 28.7996 23 29.2386 23H35H33.618C32.8747 23 32.3912 22.2177 32.7236 21.5528L33.2236 20.5528C33.393 20.214 33.7393 20 34.118 20H38.223C38.4043 20 38.5821 20.0493 38.7375 20.1425L43.5 23" stroke="black" stroke-width="2"/>
<path d="M11 17C11 17 15 18 15 12C15 12 21 16 24 9C24 9 27 16 33 12C33 12 33 18.5 37 17" stroke="black" stroke-width="2"/>
<path d="M37 5H47M42 0V10" stroke="black" stroke-width="3"/>
</g>
<defs>
<clipPath id="clip0_51_44">
<rect width="50" height="37" fill="white"/>
</clipPath>
</defs>
</svg>
