<svg width="82" height="49" viewBox="0 0 82 49" fill="none" xmlns="http://www.w3.org/2000/svg">
<path fill-rule="evenodd" clip-rule="evenodd" d="M6.35728 23.1367L3.91013 20.7758L5.40221 17.7202L2.95506 15.3593L4.44715 12.3038L2 9.94287L6.92404 9.07463L10.7443 30.7404L5.82026 31.6086L7.31234 28.5531L4.86519 26.1922L6.35728 23.1367ZM53.1356 14.8884L55.5828 17.2493L54.0907 20.3048L56.5379 22.6658L51.6138 23.534L47.7936 1.86823L52.7176 0.99999L51.2255 4.05551L53.6727 6.41643L52.1806 9.47195L54.6277 11.8329L53.1356 14.8884ZM8.89365 8.72733L12.7139 30.3931L49.6442 23.8813L45.8239 2.21553L8.89365 8.72733ZM25.9357 19.5405L26.6761 20.3155L27.0234 22.2851L26.9651 24.834L36.3208 23.1843L35.2754 20.8301L34.9281 18.8604L35.9903 16.6089C36.3191 15.912 36.4238 15.1303 36.29 14.3715C36.0668 13.1059 35.2075 12.0446 34.016 11.5631L33.7446 11.4534L33.7372 11.4118C33.6284 10.7946 33.3539 10.2186 32.9431 9.74541C32.1468 8.82826 30.9277 8.39613 29.7316 8.60703L26.1587 9.23704C25.2669 9.39428 24.4742 9.89932 23.9548 10.6411C23.4354 11.3828 23.232 12.3005 23.3892 13.1923L23.7455 15.2131C24.0324 16.8402 24.7945 18.3459 25.9357 19.5405Z" fill="black"/>
<path d="M3.91013 20.7758L3.46084 20.5564L3.30127 20.8831L3.56297 21.1356L3.91013 20.7758ZM6.35728 23.1367L6.80657 23.3561L6.96613 23.0293L6.70444 22.7768L6.35728 23.1367ZM5.40221 17.7202L5.85151 17.9396L6.01107 17.6129L5.74937 17.3604L5.40221 17.7202ZM2.95506 15.3593L2.50577 15.1399L2.34621 15.4667L2.60791 15.7191L2.95506 15.3593ZM4.44715 12.3038L4.89644 12.5232L5.056 12.1964L4.79431 11.944L4.44715 12.3038ZM2 9.94287L1.91318 9.45047L0.946208 9.62097L1.65284 10.3027L2 9.94287ZM6.92404 9.07463L7.41644 8.98781L7.32962 8.4954L6.83721 8.58223L6.92404 9.07463ZM10.7443 30.7404L10.8311 31.2328L11.3235 31.146L11.2367 30.6536L10.7443 30.7404ZM5.82026 31.6086L5.37097 31.3892L4.94012 32.2715L5.90708 32.101L5.82026 31.6086ZM7.31234 28.5531L7.76164 28.7725L7.9212 28.4458L7.6595 28.1933L7.31234 28.5531ZM4.86519 26.1922L4.4159 25.9728L4.25634 26.2996L4.51804 26.552L4.86519 26.1922ZM55.5828 17.2493L56.0321 17.4687L56.1916 17.142L55.93 16.8895L55.5828 17.2493ZM53.1356 14.8884L52.6864 14.669L52.5268 14.9958L52.7885 15.2482L53.1356 14.8884ZM54.0907 20.3048L53.6414 20.0854L53.4819 20.4122L53.7436 20.6647L54.0907 20.3048ZM56.5379 22.6658L56.6247 23.1582L57.5917 22.9877L56.885 22.3059L56.5379 22.6658ZM51.6138 23.534L51.1214 23.6208L51.2082 24.1132L51.7006 24.0264L51.6138 23.534ZM47.7936 1.86823L47.7067 1.37583L47.2143 1.46265L47.3012 1.95505L47.7936 1.86823ZM52.7176 0.99999L53.1669 1.21939L53.5977 0.337083L52.6308 0.507586L52.7176 0.99999ZM51.2255 4.05551L50.7762 3.83611L50.6167 4.16287L50.8784 4.41534L51.2255 4.05551ZM53.6727 6.41643L54.122 6.63583L54.2815 6.30907L54.0198 6.0566L53.6727 6.41643ZM52.1806 9.47195L51.7313 9.25255L51.5717 9.57931L51.8334 9.83179L52.1806 9.47195ZM54.6277 11.8329L55.077 12.0523L55.2366 11.7255L54.9749 11.473L54.6277 11.8329ZM12.7139 30.3931L12.2215 30.4799L12.3083 30.9723L12.8007 30.8855L12.7139 30.3931ZM8.89365 8.72733L8.80683 8.23493L8.31443 8.32175L8.40125 8.81416L8.89365 8.72733ZM49.6442 23.8813L49.731 24.3737L50.2234 24.2869L50.1366 23.7945L49.6442 23.8813ZM45.8239 2.21553L46.3163 2.1287L46.2295 1.6363L45.7371 1.72312L45.8239 2.21553ZM26.6761 20.3155L27.1685 20.2287L27.1422 20.0796L27.0376 19.9701L26.6761 20.3155ZM25.9357 19.5405L26.2972 19.1951L26.2972 19.1951L25.9357 19.5405ZM27.0234 22.2851L27.5232 22.2965L27.5244 22.247L27.5158 22.1983L27.0234 22.2851ZM26.9651 24.834L26.4652 24.8225L26.4513 25.4323L27.0519 25.3264L26.9651 24.834ZM36.3208 23.1843L36.4076 23.6767L37.0372 23.5657L36.7777 22.9814L36.3208 23.1843ZM35.2754 20.8301L34.783 20.9169L34.7937 20.9771L34.8185 21.033L35.2754 20.8301ZM34.9281 18.8604L34.4759 18.6471L34.4082 18.7908L34.4357 18.9473L34.9281 18.8604ZM35.9903 16.6089L35.5381 16.3955L35.5381 16.3955L35.9903 16.6089ZM34.016 11.5631L34.2034 11.0996L34.2034 11.0996L34.016 11.5631ZM33.7446 11.4534L33.2522 11.5403L33.3003 11.8132L33.5572 11.917L33.7446 11.4534ZM32.9431 9.74541L32.5655 10.0732L32.5655 10.0732L32.9431 9.74541ZM29.7316 8.60703L29.6448 8.11463L29.7316 8.60703ZM26.1587 9.23704L26.2455 9.72944L26.1587 9.23704ZM3.56297 21.1356L6.01012 23.4965L6.70444 22.7768L4.25729 20.4159L3.56297 21.1356ZM4.95292 17.5008L3.46084 20.5564L4.35942 20.9952L5.85151 17.9396L4.95292 17.5008ZM2.60791 15.7191L5.05506 18.0801L5.74937 17.3604L3.30222 14.9995L2.60791 15.7191ZM3.99786 12.0844L2.50577 15.1399L3.40436 15.5787L4.89644 12.5232L3.99786 12.0844ZM1.65284 10.3027L4.09999 12.6636L4.79431 11.944L2.34716 9.58304L1.65284 10.3027ZM6.83721 8.58223L1.91318 9.45047L2.08682 10.4353L7.01086 9.56703L6.83721 8.58223ZM11.2367 30.6536L7.41644 8.98781L6.43163 9.16145L10.2519 30.8272L11.2367 30.6536ZM5.90708 32.101L10.8311 31.2328L10.6575 30.248L5.73344 31.1162L5.90708 32.101ZM6.86305 28.3337L5.37097 31.3892L6.26955 31.828L7.76164 28.7725L6.86305 28.3337ZM4.51804 26.552L6.96519 28.913L7.6595 28.1933L5.21235 25.8324L4.51804 26.552ZM5.90799 22.9173L4.4159 25.9728L5.31449 26.4116L6.80657 23.3561L5.90799 22.9173ZM55.93 16.8895L53.4828 14.5286L52.7885 15.2482L55.2356 17.6092L55.93 16.8895ZM54.54 20.5242L56.0321 17.4687L55.1335 17.0299L53.6414 20.0854L54.54 20.5242ZM56.885 22.3059L54.4379 19.945L53.7436 20.6647L56.1907 23.0256L56.885 22.3059ZM51.7006 24.0264L56.6247 23.1582L56.451 22.1734L51.527 23.0416L51.7006 24.0264ZM47.3012 1.95505L51.1214 23.6208L52.1062 23.4472L48.286 1.78141L47.3012 1.95505ZM52.6308 0.507586L47.7067 1.37583L47.8804 2.36063L52.8044 1.49239L52.6308 0.507586ZM51.6748 4.27491L53.1669 1.21939L52.2683 0.78059L50.7762 3.83611L51.6748 4.27491ZM54.0198 6.0566L51.5727 3.69567L50.8784 4.41534L53.3255 6.77627L54.0198 6.0566ZM52.6299 9.69135L54.122 6.63583L53.2234 6.19703L51.7313 9.25255L52.6299 9.69135ZM54.9749 11.473L52.5277 9.11211L51.8334 9.83179L54.2806 12.1927L54.9749 11.473ZM53.5849 15.1078L55.077 12.0523L54.1784 11.6135L52.6864 14.669L53.5849 15.1078ZM13.2063 30.3063L9.38606 8.64051L8.40125 8.81416L12.2215 30.4799L13.2063 30.3063ZM49.5574 23.3889L12.6271 29.9007L12.8007 30.8855L49.731 24.3737L49.5574 23.3889ZM45.3315 2.30235L49.1518 23.9681L50.1366 23.7945L46.3163 2.1287L45.3315 2.30235ZM8.98048 9.21974L45.9108 2.70793L45.7371 1.72312L8.80683 8.23493L8.98048 9.21974ZM27.0376 19.9701L26.2972 19.1951L25.5742 19.8859L26.3145 20.6609L27.0376 19.9701ZM27.5158 22.1983L27.1685 20.2287L26.1837 20.4023L26.531 22.3719L27.5158 22.1983ZM27.465 24.8454L27.5232 22.2965L26.5235 22.2737L26.4652 24.8225L27.465 24.8454ZM36.2339 22.6919L26.8783 24.3416L27.0519 25.3264L36.4076 23.6767L36.2339 22.6919ZM34.8185 21.033L35.8638 23.3872L36.7777 22.9814L35.7324 20.6271L34.8185 21.033ZM34.4357 18.9473L34.783 20.9169L35.7678 20.7432L35.4205 18.7736L34.4357 18.9473ZM35.5381 16.3955L34.4759 18.6471L35.3803 19.0738L36.4425 16.8222L35.5381 16.3955ZM35.7976 14.4583C35.9134 15.1153 35.8228 15.7921 35.5381 16.3955L36.4425 16.8222C36.8154 16.0318 36.9341 15.1453 36.7824 14.2847L35.7976 14.4583ZM33.8287 12.0267C34.8603 12.4436 35.6043 13.3625 35.7976 14.4583L36.7824 14.2847C36.5293 12.8493 35.5546 11.6457 34.2034 11.0996L33.8287 12.0267ZM33.5572 11.917L33.8287 12.0267L34.2034 11.0996L33.9319 10.9899L33.5572 11.917ZM33.2448 11.4986L33.2522 11.5403L34.237 11.3666L34.2296 11.325L33.2448 11.4986ZM32.5655 10.0732C32.9169 10.478 33.1517 10.9707 33.2448 11.4986L34.2296 11.325C34.1051 10.6186 33.7909 9.95928 33.3206 9.41762L32.5655 10.0732ZM29.8184 9.09944C30.8416 8.91903 31.8844 9.28867 32.5655 10.0732L33.3206 9.41762C32.4092 8.36784 31.0139 7.87322 29.6448 8.11463L29.8184 9.09944ZM26.2455 9.72944L29.8184 9.09944L29.6448 8.11463L26.0718 8.74463L26.2455 9.72944ZM24.3644 10.9279C24.8077 10.2947 25.4843 9.86365 26.2455 9.72944L26.0718 8.74463C25.0495 8.9249 24.1406 9.50391 23.5452 10.3543L24.3644 10.9279ZM23.8816 13.1054C23.7474 12.3443 23.921 11.561 24.3644 10.9279L23.5452 10.3543C22.9498 11.2047 22.7165 12.2567 22.8968 13.2791L23.8816 13.1054ZM24.2379 15.1263L23.8816 13.1054L22.8968 13.2791L23.2531 15.3L24.2379 15.1263ZM26.2972 19.1951C25.2242 18.0719 24.5077 16.6561 24.2379 15.1263L23.2531 15.3C23.5572 17.0242 24.3648 18.6199 25.5742 19.8859L26.2972 19.1951ZM33.2522 11.5403L33.9468 15.4795L34.9316 15.3058L34.237 11.3666L33.2522 11.5403ZM34.8413 18.368L26.5892 19.8231L26.7629 20.8079L35.015 19.3528L34.8413 18.368ZM27.1102 22.7775L35.3623 21.3225L35.1886 20.3376L26.9365 21.7927L27.1102 22.7775Z" fill="black"/>
<path fill-rule="evenodd" clip-rule="evenodd" d="M30.3573 39.1367L27.9101 36.7758L29.4022 33.7202L26.9551 31.3593L28.4471 28.3038L26 25.9429L30.924 25.0746L34.7443 46.7404L29.8203 47.6086L31.3123 44.5531L28.8652 42.1922L30.3573 39.1367ZM77.1356 30.8884L79.5828 33.2493L78.0907 36.3048L80.5379 38.6658L75.6138 39.534L71.7936 17.8682L76.7176 17L75.2255 20.0555L77.6727 22.4164L76.1806 25.472L78.6277 27.8329L77.1356 30.8884ZM32.8937 24.7273L36.7139 46.3931L73.6442 39.8813L69.8239 18.2155L32.8937 24.7273ZM49.9357 35.5405L50.6761 36.3155L51.0234 38.2851L50.9651 40.834L60.3208 39.1843L59.2754 36.8301L58.9281 34.8604L59.9903 32.6089C60.3191 31.912 60.4238 31.1303 60.29 30.3715C60.0668 29.1059 59.2075 28.0446 58.016 27.5631L57.7446 27.4534L57.7372 27.4118C57.6284 26.7946 57.3539 26.2186 56.9431 25.7454C56.1468 24.8283 54.9277 24.3961 53.7316 24.607L50.1587 25.237C49.2669 25.3943 48.4742 25.8993 47.9548 26.6411C47.4354 27.3828 47.232 28.3005 47.3892 29.1923L47.7455 31.2131C48.0324 32.8402 48.7945 34.3459 49.9357 35.5405Z" fill="black"/>
<path d="M27.9101 36.7758L27.4608 36.5564L27.3013 36.8831L27.563 37.1356L27.9101 36.7758ZM30.3573 39.1367L30.8066 39.3561L30.9661 39.0293L30.7044 38.7768L30.3573 39.1367ZM29.4022 33.7202L29.8515 33.9396L30.0111 33.6129L29.7494 33.3604L29.4022 33.7202ZM26.9551 31.3593L26.5058 31.1399L26.3462 31.4667L26.6079 31.7191L26.9551 31.3593ZM28.4471 28.3038L28.8964 28.5232L29.056 28.1964L28.7943 27.944L28.4471 28.3038ZM26 25.9429L25.9132 25.4505L24.9462 25.621L25.6528 26.3027L26 25.9429ZM30.924 25.0746L31.4164 24.9878L31.3296 24.4954L30.8372 24.5822L30.924 25.0746ZM34.7443 46.7404L34.8311 47.2328L35.3235 47.146L35.2367 46.6536L34.7443 46.7404ZM29.8203 47.6086L29.371 47.3892L28.9401 48.2715L29.9071 48.101L29.8203 47.6086ZM31.3123 44.5531L31.7616 44.7725L31.9212 44.4458L31.6595 44.1933L31.3123 44.5531ZM28.8652 42.1922L28.4159 41.9728L28.2563 42.2996L28.518 42.552L28.8652 42.1922ZM79.5828 33.2493L80.0321 33.4687L80.1916 33.142L79.93 32.8895L79.5828 33.2493ZM77.1356 30.8884L76.6864 30.669L76.5268 30.9958L76.7885 31.2482L77.1356 30.8884ZM78.0907 36.3048L77.6414 36.0854L77.4819 36.4122L77.7436 36.6647L78.0907 36.3048ZM80.5379 38.6658L80.6247 39.1582L81.5917 38.9877L80.885 38.3059L80.5379 38.6658ZM75.6138 39.534L75.1214 39.6208L75.2082 40.1132L75.7006 40.0264L75.6138 39.534ZM71.7936 17.8682L71.7067 17.3758L71.2143 17.4627L71.3012 17.9551L71.7936 17.8682ZM76.7176 17L77.1669 17.2194L77.5977 16.3371L76.6308 16.5076L76.7176 17ZM75.2255 20.0555L74.7762 19.8361L74.6167 20.1629L74.8784 20.4153L75.2255 20.0555ZM77.6727 22.4164L78.122 22.6358L78.2815 22.3091L78.0198 22.0566L77.6727 22.4164ZM76.1806 25.472L75.7313 25.2525L75.5717 25.5793L75.8334 25.8318L76.1806 25.472ZM78.6277 27.8329L79.077 28.0523L79.2366 27.7255L78.9749 27.473L78.6277 27.8329ZM36.7139 46.3931L36.2215 46.4799L36.3083 46.9723L36.8007 46.8855L36.7139 46.3931ZM32.8937 24.7273L32.8068 24.2349L32.3144 24.3218L32.4013 24.8142L32.8937 24.7273ZM73.6442 39.8813L73.731 40.3737L74.2234 40.2869L74.1366 39.7945L73.6442 39.8813ZM69.8239 18.2155L70.3163 18.1287L70.2295 17.6363L69.7371 17.7231L69.8239 18.2155ZM50.6761 36.3155L51.1685 36.2287L51.1422 36.0796L51.0376 35.9701L50.6761 36.3155ZM49.9357 35.5405L50.2972 35.1951L50.2972 35.1951L49.9357 35.5405ZM51.0234 38.2851L51.5232 38.2965L51.5244 38.247L51.5158 38.1983L51.0234 38.2851ZM50.9651 40.834L50.4652 40.8225L50.4513 41.4323L51.0519 41.3264L50.9651 40.834ZM60.3208 39.1843L60.4076 39.6767L61.0372 39.5657L60.7777 38.9814L60.3208 39.1843ZM59.2754 36.8301L58.783 36.9169L58.7937 36.9771L58.8185 37.033L59.2754 36.8301ZM58.9281 34.8604L58.4759 34.6471L58.4082 34.7908L58.4357 34.9473L58.9281 34.8604ZM59.9903 32.6089L59.5381 32.3955L59.5381 32.3955L59.9903 32.6089ZM58.016 27.5631L58.2034 27.0996L58.2034 27.0996L58.016 27.5631ZM57.7446 27.4534L57.2522 27.5403L57.3003 27.8132L57.5572 27.917L57.7446 27.4534ZM56.9431 25.7454L56.5655 26.0732L56.5655 26.0732L56.9431 25.7454ZM27.563 37.1356L30.0101 39.4965L30.7044 38.7768L28.2573 36.4159L27.563 37.1356ZM28.9529 33.5008L27.4608 36.5564L28.3594 36.9952L29.8515 33.9396L28.9529 33.5008ZM26.6079 31.7191L29.0551 34.0801L29.7494 33.3604L27.3022 30.9995L26.6079 31.7191ZM27.9979 28.0844L26.5058 31.1399L27.4044 31.5787L28.8964 28.5232L27.9979 28.0844ZM25.6528 26.3027L28.1 28.6636L28.7943 27.944L26.3472 25.583L25.6528 26.3027ZM30.8372 24.5822L25.9132 25.4505L26.0868 26.4353L31.0109 25.567L30.8372 24.5822ZM35.2367 46.6536L31.4164 24.9878L30.4316 25.1615L34.2519 46.8272L35.2367 46.6536ZM29.9071 48.101L34.8311 47.2328L34.6575 46.248L29.7334 47.1162L29.9071 48.101ZM30.8631 44.3337L29.371 47.3892L30.2696 47.828L31.7616 44.7725L30.8631 44.3337ZM28.518 42.552L30.9652 44.913L31.6595 44.1933L29.2124 41.8324L28.518 42.552ZM29.908 38.9173L28.4159 41.9728L29.3145 42.4116L30.8066 39.3561L29.908 38.9173ZM79.93 32.8895L77.4828 30.5286L76.7885 31.2482L79.2356 33.6092L79.93 32.8895ZM78.54 36.5242L80.0321 33.4687L79.1335 33.0299L77.6414 36.0854L78.54 36.5242ZM80.885 38.3059L78.4379 35.945L77.7436 36.6647L80.1907 39.0256L80.885 38.3059ZM75.7006 40.0264L80.6247 39.1582L80.451 38.1734L75.527 39.0416L75.7006 40.0264ZM71.3012 17.9551L75.1214 39.6208L76.1062 39.4472L72.286 17.7814L71.3012 17.9551ZM76.6308 16.5076L71.7067 17.3758L71.8804 18.3606L76.8044 17.4924L76.6308 16.5076ZM75.6748 20.2749L77.1669 17.2194L76.2683 16.7806L74.7762 19.8361L75.6748 20.2749ZM78.0198 22.0566L75.5727 19.6957L74.8784 20.4153L77.3255 22.7763L78.0198 22.0566ZM76.6299 25.6914L78.122 22.6358L77.2234 22.197L75.7313 25.2525L76.6299 25.6914ZM78.9749 27.473L76.5277 25.1121L75.8334 25.8318L78.2806 28.1927L78.9749 27.473ZM77.5849 31.1078L79.077 28.0523L78.1784 27.6135L76.6864 30.669L77.5849 31.1078ZM37.2063 46.3063L33.3861 24.6405L32.4013 24.8142L36.2215 46.4799L37.2063 46.3063ZM73.5574 39.3889L36.6271 45.9007L36.8007 46.8855L73.731 40.3737L73.5574 39.3889ZM69.3315 18.3024L73.1518 39.9681L74.1366 39.7945L70.3163 18.1287L69.3315 18.3024ZM32.9805 25.2197L69.9108 18.7079L69.7371 17.7231L32.8068 24.2349L32.9805 25.2197ZM51.0376 35.9701L50.2972 35.1951L49.5742 35.8859L50.3145 36.6609L51.0376 35.9701ZM51.5158 38.1983L51.1685 36.2287L50.1837 36.4023L50.531 38.3719L51.5158 38.1983ZM51.465 40.8454L51.5232 38.2965L50.5235 38.2737L50.4652 40.8225L51.465 40.8454ZM60.2339 38.6919L50.8783 40.3416L51.0519 41.3264L60.4076 39.6767L60.2339 38.6919ZM58.8185 37.033L59.8638 39.3872L60.7777 38.9814L59.7324 36.6271L58.8185 37.033ZM58.4357 34.9473L58.783 36.9169L59.7678 36.7432L59.4205 34.7736L58.4357 34.9473ZM59.5381 32.3955L58.4759 34.6471L59.3803 35.0738L60.4425 32.8222L59.5381 32.3955ZM59.7976 30.4583C59.9134 31.1153 59.8228 31.7921 59.5381 32.3955L60.4425 32.8222C60.8154 32.0318 60.9341 31.1453 60.7824 30.2847L59.7976 30.4583ZM57.8287 28.0267C58.8603 28.4436 59.6043 29.3625 59.7976 30.4583L60.7824 30.2847C60.5293 28.8493 59.5546 27.6457 58.2034 27.0996L57.8287 28.0267ZM57.5572 27.917L57.8287 28.0267L58.2034 27.0996L57.9319 26.9899L57.5572 27.917ZM57.2448 27.4986L57.2522 27.5403L58.237 27.3666L58.2296 27.325L57.2448 27.4986ZM56.5655 26.0732C56.9169 26.478 57.1517 26.9707 57.2448 27.4986L58.2296 27.325C58.1051 26.6186 57.7909 25.9593 57.3206 25.4176L56.5655 26.0732ZM53.8184 25.0994C54.8416 24.919 55.8844 25.2887 56.5655 26.0732L57.3206 25.4176C56.4092 24.3678 55.0139 23.8732 53.6448 24.1146L53.8184 25.0994ZM50.2455 25.7294L53.8184 25.0994L53.6448 24.1146L50.0718 24.7446L50.2455 25.7294ZM48.3644 26.9279C48.8077 26.2947 49.4843 25.8637 50.2455 25.7294L50.0718 24.7446C49.0495 24.9249 48.1406 25.5039 47.5452 26.3543L48.3644 26.9279ZM47.8816 29.1054C47.7474 28.3443 47.921 27.561 48.3644 26.9279L47.5452 26.3543C46.9498 27.2047 46.7165 28.2567 46.8968 29.2791L47.8816 29.1054ZM48.2379 31.1263L47.8816 29.1054L46.8968 29.2791L47.2531 31.3L48.2379 31.1263ZM50.2972 35.1951C49.2242 34.0719 48.5077 32.6561 48.2379 31.1263L47.2531 31.3C47.5572 33.0242 48.3648 34.6199 49.5742 35.8859L50.2972 35.1951ZM57.2522 27.5403L57.9468 31.4795L58.9316 31.3058L58.237 27.3666L57.2522 27.5403ZM58.8413 34.368L50.5892 35.8231L50.7629 36.8079L59.015 35.3528L58.8413 34.368ZM51.1102 38.7775L59.3623 37.3225L59.1886 36.3376L50.9365 37.7927L51.1102 38.7775Z" fill="black"/>
</svg>
