<svg width="58" height="32" viewBox="0 0 58 32" fill="none" xmlns="http://www.w3.org/2000/svg">
<path fill-rule="evenodd" clip-rule="evenodd" d="M5.83835 22.8324L3.3912 20.4714L4.88328 17.4159L2.43614 15.055L3.92822 11.9995L1.48107 9.63855L6.40511 8.77031L10.2254 30.4361L5.30133 31.3043L6.79341 28.2488L4.34627 25.8879L5.83835 22.8324ZM52.6167 14.5841L55.0639 16.945L53.5718 20.0005L56.0189 22.3614L51.0949 23.2297L47.2746 1.56391L52.1987 0.695669L50.7066 3.75119L53.1537 6.11211L51.6617 9.16763L54.1088 11.5286L52.6167 14.5841ZM8.37473 8.42301L12.195 30.0888L49.1253 23.577L45.305 1.91121L8.37473 8.42301ZM25.4168 19.2362L26.1571 20.0112L26.5044 21.9808L26.4462 24.5296L35.8018 22.88L34.7565 20.5257L34.4092 18.5561L35.4714 16.3045C35.8002 15.6076 35.9048 14.826 35.771 14.0672C35.5479 12.8016 34.6885 11.7403 33.4971 11.2588L33.2256 11.1491L33.2183 11.1075C33.1095 10.4903 32.835 9.91432 32.4241 9.44109C31.6279 8.52394 30.4088 8.0918 29.2127 8.30271L25.6397 8.93272C24.748 9.08996 23.9552 9.595 23.4359 10.3367C22.9165 11.0785 22.713 11.9962 22.8703 12.8879L23.2266 14.9088C23.5135 16.5358 24.2756 18.0415 25.4168 19.2362Z" fill="black"/>
<path d="M3.3912 20.4714L2.94191 20.252L2.78235 20.5788L3.04404 20.8313L3.3912 20.4714ZM5.83835 22.8324L6.28764 23.0518L6.44721 22.725L6.18551 22.4725L5.83835 22.8324ZM4.88328 17.4159L5.33258 17.6353L5.49214 17.3086L5.23044 17.0561L4.88328 17.4159ZM2.43614 15.055L1.98684 14.8356L1.82728 15.1624L2.08898 15.4148L2.43614 15.055ZM3.92822 11.9995L4.37751 12.2189L4.53708 11.8921L4.27538 11.6396L3.92822 11.9995ZM1.48107 9.63855L1.39425 9.14615L0.427279 9.31665L1.13391 9.99839L1.48107 9.63855ZM6.40511 8.77031L6.89751 8.68348L6.81069 8.19108L6.31829 8.27791L6.40511 8.77031ZM10.2254 30.4361L10.3122 30.9285L10.8046 30.8417L10.7178 30.3493L10.2254 30.4361ZM5.30133 31.3043L4.85204 31.0849L4.42119 31.9672L5.38816 31.7967L5.30133 31.3043ZM6.79341 28.2488L7.24271 28.4682L7.40227 28.1414L7.14057 27.889L6.79341 28.2488ZM4.34627 25.8879L3.89697 25.6685L3.73741 25.9952L3.99911 26.2477L4.34627 25.8879ZM55.0639 16.945L55.5132 17.1644L55.6727 16.8376L55.411 16.5852L55.0639 16.945ZM52.6167 14.5841L52.1674 14.3647L52.0079 14.6914L52.2696 14.9439L52.6167 14.5841ZM53.5718 20.0005L53.1225 19.7811L52.9629 20.1079L53.2246 20.3603L53.5718 20.0005ZM56.0189 22.3614L56.1058 22.8538L57.0727 22.6833L56.3661 22.0016L56.0189 22.3614ZM51.0949 23.2297L50.6025 23.3165L50.6893 23.8089L51.1817 23.7221L51.0949 23.2297ZM47.2746 1.56391L47.1878 1.07151L46.6954 1.15833L46.7822 1.65073L47.2746 1.56391ZM52.1987 0.695669L52.648 0.915069L53.0788 0.0327622L52.1118 0.203265L52.1987 0.695669ZM50.7066 3.75119L50.2573 3.53179L50.0977 3.85854L50.3594 4.11102L50.7066 3.75119ZM53.1537 6.11211L53.603 6.33151L53.7626 6.00475L53.5009 5.75228L53.1537 6.11211ZM51.6617 9.16763L51.2124 8.94823L51.0528 9.27499L51.3145 9.52746L51.6617 9.16763ZM54.1088 11.5286L54.5581 11.748L54.7177 11.4212L54.456 11.1687L54.1088 11.5286ZM12.195 30.0888L11.7026 30.1756L11.7894 30.668L12.2818 30.5812L12.195 30.0888ZM8.37473 8.42301L8.2879 7.93061L7.7955 8.01743L7.88232 8.50984L8.37473 8.42301ZM49.1253 23.577L49.2121 24.0694L49.7045 23.9826L49.6177 23.4902L49.1253 23.577ZM45.305 1.91121L45.7974 1.82438L45.7106 1.33198L45.2182 1.4188L45.305 1.91121ZM26.1571 20.0112L26.6495 19.9244L26.6233 19.7753L26.5187 19.6658L26.1571 20.0112ZM25.4168 19.2362L25.7783 18.8908L25.7783 18.8908L25.4168 19.2362ZM26.5044 21.9808L27.0043 21.9922L27.0054 21.9427L26.9968 21.894L26.5044 21.9808ZM26.4462 24.5296L25.9463 24.5182L25.9323 25.1279L26.533 25.022L26.4462 24.5296ZM35.8018 22.88L35.8887 23.3724L36.5182 23.2614L36.2588 22.6771L35.8018 22.88ZM34.7565 20.5257L34.2641 20.6126L34.2747 20.6728L34.2995 20.7286L34.7565 20.5257ZM34.4092 18.5561L33.957 18.3428L33.8892 18.4865L33.9168 18.6429L34.4092 18.5561ZM35.4714 16.3045L35.0192 16.0912L35.0192 16.0912L35.4714 16.3045ZM33.4971 11.2588L33.6844 10.7952L33.6844 10.7952L33.4971 11.2588ZM33.2256 11.1491L32.7332 11.2359L32.7814 11.5088L33.0383 11.6127L33.2256 11.1491ZM32.4241 9.44109L32.0466 9.76888L32.0466 9.76888L32.4241 9.44109ZM3.04404 20.8313L5.49119 23.1922L6.18551 22.4725L3.73836 20.1116L3.04404 20.8313ZM4.43399 17.1965L2.94191 20.252L3.84049 20.6908L5.33258 17.6353L4.43399 17.1965ZM2.08898 15.4148L4.53613 17.7758L5.23044 17.0561L2.78329 14.6952L2.08898 15.4148ZM3.47893 11.7801L1.98684 14.8356L2.88543 15.2744L4.37751 12.2189L3.47893 11.7801ZM1.13391 9.99839L3.58106 12.3593L4.27538 11.6396L1.82823 9.27871L1.13391 9.99839ZM6.31829 8.27791L1.39425 9.14615L1.5679 10.131L6.49193 9.26271L6.31829 8.27791ZM10.7178 30.3493L6.89751 8.68348L5.91271 8.85713L9.73297 30.5229L10.7178 30.3493ZM5.38816 31.7967L10.3122 30.9285L10.1385 29.9437L5.21451 30.8119L5.38816 31.7967ZM6.34412 28.0294L4.85204 31.0849L5.75062 31.5237L7.24271 28.4682L6.34412 28.0294ZM3.99911 26.2477L6.44626 28.6086L7.14057 27.889L4.69342 25.528L3.99911 26.2477ZM5.38906 22.613L3.89697 25.6685L4.79556 26.1073L6.28764 23.0518L5.38906 22.613ZM55.411 16.5852L52.9639 14.2242L52.2696 14.9439L54.7167 17.3048L55.411 16.5852ZM54.0211 20.2199L55.5132 17.1644L54.6146 16.7256L53.1225 19.7811L54.0211 20.2199ZM56.3661 22.0016L53.9189 19.6407L53.2246 20.3603L55.6718 22.7213L56.3661 22.0016ZM51.1817 23.7221L56.1058 22.8538L55.9321 21.869L51.0081 22.7373L51.1817 23.7221ZM46.7822 1.65073L50.6025 23.3165L51.5873 23.1429L47.767 1.47709L46.7822 1.65073ZM52.1118 0.203265L47.1878 1.07151L47.3615 2.05631L52.2855 1.18807L52.1118 0.203265ZM51.1559 3.97059L52.648 0.915069L51.7494 0.476268L50.2573 3.53179L51.1559 3.97059ZM53.5009 5.75228L51.0537 3.39135L50.3594 4.11102L52.8066 6.47195L53.5009 5.75228ZM52.1109 9.38703L53.603 6.33151L52.7044 5.89271L51.2124 8.94823L52.1109 9.38703ZM54.456 11.1687L52.0088 8.80779L51.3145 9.52746L53.7616 11.8884L54.456 11.1687ZM53.066 14.8035L54.5581 11.748L53.6595 11.3092L52.1674 14.3647L53.066 14.8035ZM12.6874 30.002L8.86713 8.33619L7.88232 8.50984L11.7026 30.1756L12.6874 30.002ZM49.0385 23.0846L12.1082 29.5964L12.2818 30.5812L49.2121 24.0694L49.0385 23.0846ZM44.8126 1.99803L48.6329 23.6638L49.6177 23.4902L45.7974 1.82438L44.8126 1.99803ZM8.46155 8.91542L45.3918 2.40361L45.2182 1.4188L8.2879 7.93061L8.46155 8.91542ZM26.5187 19.6658L25.7783 18.8908L25.0552 19.5815L25.7956 20.3566L26.5187 19.6658ZM26.9968 21.894L26.6495 19.9244L25.6647 20.098L26.012 22.0676L26.9968 21.894ZM26.946 24.5411L27.0043 21.9922L26.0046 21.9694L25.9463 24.5182L26.946 24.5411ZM35.715 22.3876L26.3593 24.0372L26.533 25.022L35.8887 23.3724L35.715 22.3876ZM34.2995 20.7286L35.3449 23.0829L36.2588 22.6771L35.2135 20.3228L34.2995 20.7286ZM33.9168 18.6429L34.2641 20.6126L35.2489 20.4389L34.9016 18.4693L33.9168 18.6429ZM35.0192 16.0912L33.957 18.3428L34.8614 18.7694L35.9236 16.5179L35.0192 16.0912ZM35.2786 14.154C35.3945 14.811 35.3038 15.4878 35.0192 16.0912L35.9236 16.5179C36.2965 15.7275 36.4152 14.841 36.2634 13.9803L35.2786 14.154ZM33.3098 11.7224C34.3413 12.1393 35.0854 13.0582 35.2786 14.154L36.2634 13.9803C36.0104 12.545 35.0357 11.3413 33.6844 10.7952L33.3098 11.7224ZM33.0383 11.6127L33.3098 11.7224L33.6844 10.7952L33.413 10.6855L33.0383 11.6127ZM32.7259 11.1943L32.7332 11.2359L33.7181 11.0623L33.7107 11.0207L32.7259 11.1943ZM32.0466 9.76888C32.398 10.1737 32.6328 10.6664 32.7259 11.1943L33.7107 11.0207C33.5862 10.3142 33.2719 9.65496 32.8017 9.1133L32.0466 9.76888ZM29.2995 8.79512C30.3227 8.61471 31.3655 8.98435 32.0466 9.76888L32.8017 9.1133C31.8903 8.06352 30.4949 7.5689 29.1258 7.81031L29.2995 8.79512ZM25.7266 9.42512L29.2995 8.79512L29.1258 7.81031L25.5529 8.44031L25.7266 9.42512ZM23.8454 10.6235C24.2887 9.99042 24.9654 9.55933 25.7266 9.42512L25.5529 8.44031C24.5306 8.62058 23.6217 9.19959 23.0263 10.05L23.8454 10.6235ZM23.3627 12.8011C23.2285 12.04 23.4021 11.2567 23.8454 10.6235L23.0263 10.05C22.4308 10.9003 22.1976 11.9524 22.3779 12.9748L23.3627 12.8011ZM23.719 14.822L23.3627 12.8011L22.3779 12.9748L22.7342 14.9956L23.719 14.822ZM25.7783 18.8908C24.7053 17.7675 23.9888 16.3518 23.719 14.822L22.7342 14.9956C23.0382 16.7199 23.8458 18.3155 25.0552 19.5815L25.7783 18.8908ZM32.7332 11.2359L33.4278 15.1752L34.4126 15.0015L33.7181 11.0623L32.7332 11.2359ZM34.3224 18.0637L26.0703 19.5188L26.244 20.5036L34.496 19.0485L34.3224 18.0637ZM26.5913 22.4732L34.8433 21.0181L34.6697 20.0333L26.4176 21.4884L26.5913 22.4732Z" fill="black"/>
</svg>
