<svg width="54" height="37" viewBox="0 0 54 37" fill="none" xmlns="http://www.w3.org/2000/svg">
<g clip-path="url(#clip0_52_51)">
<path d="M0.200012 1.12H8.24001L14.72 25.84L21.12 1.12H29.12L18.92 36.16H10.6L0.200012 1.12ZM41.5053 36.8C39.372 36.8 37.3053 36.48 35.3053 35.84C33.332 35.2267 31.5053 34.3733 29.8253 33.28L31.0253 26.44C32.332 27.3733 33.9053 28.1867 35.7453 28.88C37.612 29.5467 39.3986 29.88 41.1053 29.88C42.4653 29.88 43.5586 29.5867 44.3853 29C45.2386 28.3867 45.6653 27.5067 45.6653 26.36C45.6653 25.32 45.2386 24.4533 44.3853 23.76C43.5586 23.0667 42.1986 22.36 40.3053 21.64L38.5053 20.96C35.572 19.8667 33.412 18.48 32.0253 16.8C30.6386 15.0933 29.9453 12.9333 29.9453 10.32C29.9453 8.29333 30.4253 6.54666 31.3853 5.08C32.3453 3.58666 33.7053 2.44 35.4653 1.64C37.2253 0.840003 39.2786 0.440002 41.6253 0.440002C43.3853 0.440002 45.1053 0.666669 46.7853 1.12C48.492 1.57333 50.052 2.21333 51.4653 3.04L50.4653 9.52001C47.772 8.08001 45.012 7.36 42.1853 7.36C40.9053 7.36 39.852 7.62667 39.0253 8.16C38.2253 8.69333 37.8253 9.50667 37.8253 10.6C37.8253 11.32 38.0253 11.92 38.4253 12.4C38.8253 12.88 39.372 13.2933 40.0653 13.64C40.7586 13.9867 41.7453 14.4133 43.0253 14.92L44.8253 15.6C47.7053 16.6667 49.8786 18.04 51.3453 19.72C52.8386 21.4 53.5853 23.64 53.5853 26.44C53.5853 28.5467 53.0653 30.3867 52.0253 31.96C50.9853 33.5333 49.5453 34.7333 47.7053 35.56C45.892 36.3867 43.8253 36.8 41.5053 36.8Z" fill="white"/>
</g>
<defs>
<clipPath id="clip0_52_51">
<rect width="54" height="37" fill="white"/>
</clipPath>
</defs>
</svg>
